:version 1.10
:name ASF
:units
  mass 1
  length 1
  angle deg
:documentation
  ASF file generated by Kaydara
:root
  axis xyz
  order  tx ty tz rx ry rz
  position 0 0 0
  orientation 0 0 0
:bonedata
  begin
    id 1
    name lfemurDummy
    direction 0.61522 -0.761478 0.204097
    length 5.68318
    axis 0 -0 0 xyz
  end
  begin
    id 2
    name lfemur
    direction 0.34202 -0.939693 -5.84747e-008
    length 16.9147
    axis 0 -0 20 xyz
    dof rx ry rz
    limits( -inf , inf )
( -inf , inf )
( -inf , inf )

  end
  begin
    id 3
    name ltibia
    direction 0.34202 -0.939693 1.20839e-009
    length 18.0532
    axis 0 -0 20 xyz
    dof rz ry rx
    limits( -inf , inf )
( -inf , inf )
( -inf , inf )

  end
  begin
    id 4
    name lfoot
    direction 0.0841971 -0.23133 0.969225
    length 5.23822
    axis -90 7.62852e-016 20 xyz
    dof ry rx rz
    limits( -inf , inf )
( -inf , inf )
( -inf , inf )

  end
  begin
    id 5
    name ltoes
    direction 0 0 0
    length 0
    axis 0 0 0 xyz
    dof rz ry rx
    limits( -inf , inf )
( -inf , inf )
( -inf , inf )

  end
  begin
    id 6
    name rfemurDummy
    direction -0.625247 -0.75382 0.202044
    length 5.74091
    axis 0 -0 0 xyz
  end
  begin
    id 7
    name rfemur
    direction -0.34202 -0.939693 -1.47013e-008
    length 16.4922
    axis 0 -0 -20 xyz
    dof rx ry rz
    limits( -inf , inf )
( -inf , inf )
( -inf , inf )

  end
  begin
    id 8
    name rtibia
    direction -0.34202 -0.939693 -7.74345e-010
    length 18.2421
    axis 0 -0 -20 xyz
    dof rz ry rx
    limits( -inf , inf )
( -inf , inf )
( -inf , inf )

  end
  begin
    id 9
    name rfoot
    direction -0.124331 -0.341598 0.931586
    length 5.45787
    axis -90 -7.62852e-016 -20 xyz
    dof ry rx rz
    limits( -inf , inf )
( -inf , inf )
( -inf , inf )

  end
  begin
    id 10
    name rtoes
    direction 0 0 0
    length 0
    axis 0 0 0 xyz
    dof rz ry rx
    limits( -inf , inf )
( -inf , inf )
( -inf , inf )

  end
  begin
    id 11
    name lowerbackDummy
    direction 0 0 0
    length 0
    axis 0 -0 0 xyz
  end
  begin
    id 12
    name lowerback
    direction -0.0218484 0.994884 -0.0986304
    length 4.45607
    axis 0 -0 0 xyz
    dof rx ry rz
    limits( -inf , inf )
( -inf , inf )
( -inf , inf )

  end
  begin
    id 13
    name upperback
    direction -0.00973057 0.999717 -0.0217111
    length 4.47449
    axis 0 -0 0 xyz
    dof rx ry rz
    limits( -inf , inf )
( -inf , inf )
( -inf , inf )

  end
  begin
    id 14
    name thorax
    direction -0.000928171 0.999699 0.0245198
    length 4.50973
    axis 0 -0 0 xyz
    dof rx ry rz
    limits( -inf , inf )
( -inf , inf )
( -inf , inf )

  end
  begin
    id 15
    name rclavicle
    direction -0.9009 0.425937 -0.0834055
    length 7.28587
    axis 0 -0 0 xyz
    dof rx ry rz
    limits( -inf , inf )
( -inf , inf )
( -inf , inf )

  end
  begin
    id 16
    name rhumerus
    direction -1 -2.23604e-007 -1.42637e-007
    length 13.5704
    axis 180 30 90 xyz
    dof rx ry rz
    limits( -inf , inf )
( -inf , inf )
( -inf , inf )

  end
  begin
    id 17
    name rradius
    direction -1 5.68281e-008 -4.4952e-007
    length 8.06782
    axis 180 30 90 xyz
    dof rz ry rx
    limits( -inf , inf )
( -inf , inf )
( -inf , inf )

  end
  begin
    id 18
    name rwrist
    direction -1 1.51393e-007 1.38143e-007
    length 4.03391
    axis -90 -90 0 xyz
    dof rz rx ry
    limits( -inf , inf )
( -inf , inf )
( -inf , inf )

  end
  begin
    id 19
    name rthumb
    direction 0 0 0
    length 0
    axis 0 0 0 xyz
    dof ry rx rz
    limits( -inf , inf )
( -inf , inf )
( -inf , inf )

  end
  begin
    id 20
    name rhand
    direction -1 -3.34077e-007 -5.59631e-007
    length 1.29744
    axis -90 -90 0 xyz
    dof ry rx rz
    limits( -inf , inf )
( -inf , inf )
( -inf , inf )

  end
  begin
    id 21
    name rfingers
    direction 0 0 0
    length 0
    axis 0 0 0 xyz
    dof rz ry rx
    limits( -inf , inf )
( -inf , inf )
( -inf , inf )

  end
  begin
    id 22
    name lclavicle
    direction 0.940017 0.332249 -0.0773232
    length 8.29589
    axis 0 -0 0 xyz
    dof rx ry rz
    limits( -inf , inf )
( -inf , inf )
( -inf , inf )

  end
  begin
    id 23
    name lhumerus
    direction 1 7.41158e-008 -1.44768e-008
    length 12.0042
    axis 180 -30 -90 xyz
    dof rx ry rz
    limits( -inf , inf )
( -inf , inf )
( -inf , inf )

  end
  begin
    id 24
    name lradius
    direction 1 -1.32972e-007 3.10821e-007
    length 8.1902
    axis 180 -30 -90 xyz
    dof rz ry rx
    limits( -inf , inf )
( -inf , inf )
( -inf , inf )

  end
  begin
    id 25
    name lwrist
    direction 1 3.08957e-007 4.01394e-007
    length 4.09509
    axis -90 90 0 xyz
    dof rz rx ry
    limits( -inf , inf )
( -inf , inf )
( -inf , inf )

  end
  begin
    id 26
    name lthumb
    direction 0 0 0
    length 0
    axis 0 0 0 xyz
    dof ry rx rz
    limits( -inf , inf )
( -inf , inf )
( -inf , inf )

  end
  begin
    id 27
    name lhand
    direction 1 -1.64125e-007 -6.99514e-007
    length 1.37229
    axis -90 90 0 xyz
    dof ry rx rz
    limits( -inf , inf )
( -inf , inf )
( -inf , inf )

  end
  begin
    id 28
    name lfingers
    direction 0 0 0
    length 0
    axis 0 0 0 xyz
    dof rz ry rx
    limits( -inf , inf )
( -inf , inf )
( -inf , inf )

  end
  begin
    id 29
    name lowerneck
    direction -0.030798 0.998024 0.0547665
    length 3.93918
    axis 0 -0 0 xyz
    dof rx ry rz
    limits( -inf , inf )
( -inf , inf )
( -inf , inf )

  end
  begin
    id 30
    name upperneck
    direction 0.0531588 0.996611 -0.0627736
    length 3.95491
    axis 0 -0 0 xyz
    dof rx ry rz
    limits( -inf , inf )
( -inf , inf )
( -inf , inf )

  end
  begin
    id 31
    name head
    direction 0 0 0
    length 0
    axis 0 0 0 xyz
    dof rx ry rz
    limits( -inf , inf )
( -inf , inf )
( -inf , inf )

  end
:hierarchy
  begin
    root lfemurDummy rfemurDummy lowerbackDummy
    lfemurDummy lfemur
    lfemur ltibia
    ltibia lfoot
    lfoot ltoes
    rfemurDummy rfemur
    rfemur rtibia
    rtibia rfoot
    rfoot rtoes
    lowerbackDummy lowerback
    lowerback upperback
    upperback thorax
    thorax rclavicle lclavicle lowerneck
    rclavicle rhumerus
    rhumerus rradius
    rradius rwrist
    rwrist rthumb rhand
    rhand rfingers
    lclavicle lhumerus
    lhumerus lradius
    lradius lwrist
    lwrist lthumb lhand
    lhand lfingers
    lowerneck upperneck
    upperneck head
  end

:SAMPLES-PER-SECOND 30
:FULLY-SPECIFIED
:DEGREES
10
root  1.443951149 39.68733239 3.686288774 -168.1779785 -67.46130371 169.473999
lowerback  15.57260036 2.780610085 -2.971920013
upperback  4.329539776 2.843430042 -1.238479972
thorax  -4.20265007 1.29053998 -0.1538999975
lowerneck  -3.516890049 12.15569973 -0.6623539925
upperneck  8.867609978 16.77199936 -5.859360218
head  4.039589882 7.983749866 -1.008209944
lclavicle  0 -9.442270133e-015 7.951389973e-016
lhumerus  -25.59860039 -9.414660454 73.623703
lradius  2.833341371e-031 -2.107372941e-031 143.3589935
lwrist  -1.412450015e-030 4.413906298e-031 40.04000092
lhand  -1.496451383e-031 -27.76390076 20.11240005
lfingers  90 7.125020027 -90
lthumb  89.89689403 5.08795885 91.16245106
rclavicle  0 -9.442270133e-015 7.951389973e-016
rhumerus  -17.98019981 10.44680023 -81.10569763
rradius  -1.263255265e-031 3.297427812e-031 110.961998
rwrist  7.062250077e-031 5.296687558e-031 -47.25669861
rhand  -7.920061211e-032 -33.2840004 9.303460121
rfingers  -90 -7.125020027 -90
rthumb  -92.93752616 -24.25625642 -97.11982154
rfemur  -12.10490036 20.10840034 -3.492019892
rtibia  -0 0 45.49729919
rfoot  -0 -10.86660004 -9.845669746
rtoes  5.373923086 19.29304026 -105.8922705
lfemur  -23.4409008 3.548150063 0.5753570199
ltibia  -0 0 48.41439819
lfoot  -0 -2.519180059 13.48480034
ltoes  -4.250644065 -19.5611806 -102.515957
11
root  1.318662185 39.45266543 3.674955443 -169.0700073 -67.686203 170.164978
lowerback  15.3277998 2.632159948 -2.826250076
upperback  4.245250225 2.693320036 -1.191050053
thorax  -4.152649879 1.221379995 -0.1495530009
lowerneck  -3.998159885 12.20650005 -0.7259020209
upperneck  8.813019753 16.85840034 -5.792250156
head  4.100249767 8.020070076 -0.9411709905
lclavicle  0 -9.442270133e-015 7.951389973e-016
lhumerus  -27.79719925 -10.16170025 75.27799988
lradius  2.836905032e-031 -2.102573157e-031 143.4559937
lwrist  -7.062250077e-031 3.531125038e-031 39.21440125
lhand  -1.496451383e-031 -27.76390076 20.11240005
lfingers  90 7.125020027 -90
lthumb  89.89689403 5.08795885 91.16245106
rclavicle  0 -9.442270133e-015 7.951389973e-016
rhumerus  -19.90570068 11.08640003 -81.30059814
rradius  -1.208005293e-031 3.318066794e-031 110.0049973
rwrist  7.062250077e-031 1.765562519e-031 -45.14440155
rhand  -7.920061211e-032 -33.2840004 9.303460121
rfingers  -90 -7.125020027 -90
rthumb  -92.93752616 -24.25625642 -97.11982154
rfemur  -10.64190006 20.71590042 -2.670589924
rtibia  -0 0 44.70230103
rfoot  -0 -10.52180004 -11.55220032
rtoes  5.373923086 19.29304026 -105.8922705
lfemur  -22.73590088 3.063940048 1.527230024
ltibia  -0 0 47.8791008
lfoot  -0 -2.58630991 14.07460022
ltoes  -4.250644065 -19.5611806 -102.515957
12
root  1.186168851 39.21111099 3.661266838 -168.7390137 -67.65019989 169.6989746
lowerback  14.95230007 2.618030071 -3.340759993
upperback  4.088840008 2.624550104 -1.189849973
thorax  -4.136740208 1.197299957 0.1639820039
lowerneck  -4.505489826 12.29230022 -0.9367750287
upperneck  8.871689796 17.00460052 -5.68227005
head  4.189179897 8.076789856 -0.8297290206
lclavicle  0 -9.442270133e-015 7.951389973e-016
lhumerus  -30.1651001 -10.88309956 77.02719879
lradius  2.845213107e-031 -2.091316909e-031 143.6829987
lwrist  -1.412450015e-030 2.648343779e-031 37.47169876
lhand  -1.496451383e-031 -27.76390076 20.11240005
lfingers  90 7.125020027 -90
lthumb  89.89689403 5.08795885 91.16245106
rclavicle  0 -9.442270133e-015 7.951389973e-016
rhumerus  -22.0135994 11.85919952 -81.44529724
rradius  -1.149854819e-031 3.338664094e-031 109.0039978
rwrist  7.062250077e-031 4.413906298e-031 -42.62829971
rhand  -7.920061211e-032 -33.2840004 9.303460121
rfingers  -90 -7.125020027 -90
rthumb  -92.93752616 -24.25625642 -97.11982154
rfemur  -9.396579742 21.55590057 -2.660330057
rtibia  -0 0 43.94549942
rfoot  -0 -14.47529984 -11.64920044
rtoes  5.373923086 19.29304026 -105.8922705
lfemur  -22.08279991 2.656229973 1.916069984
ltibia  -0 0 47.24409866
lfoot  -0 -2.516360044 14.57400036
ltoes  -4.250644065 -19.5611806 -102.515957
13
root  1.05552664 38.99910994 3.66331123 -168.3129883 -67.51580048 168.9860229
lowerback  14.95330048 2.659029961 -3.773370028
upperback  3.862659931 2.60552001 -1.386870027
thorax  -4.385029793 1.198410034 0.1972829998
lowerneck  -4.889259815 12.37829971 -0.7781140208
upperneck  8.941160202 17.12960052 -5.657390118
head  4.305180073 8.133700371 -0.807494998
lclavicle  0 -9.442270133e-015 7.951389973e-016
lhumerus  -32.59560013 -11.90499973 78.5019989
lradius  2.854275098e-031 -2.078931866e-031 143.9320068
lwrist  -7.062250077e-031 2.206953149e-031 35.26940155
lhand  -1.496451383e-031 -27.76390076 20.11240005
lfingers  90 7.125020027 -90
lthumb  89.89689403 5.08795885 91.16245106
rclavicle  0 -9.442270133e-015 7.951389973e-016
rhumerus  -24.40209961 12.49600029 -81.91639709
rradius  -1.089067167e-031 3.358984481e-031 107.9639969
rwrist  7.062250077e-031 8.827812596e-032 -40.03279877
rhand  -7.920061211e-032 -33.2840004 9.303460121
rfingers  -90 -7.125020027 -90
rthumb  -92.93752616 -24.25625642 -97.11982154
rfemur  -8.090749741 22.36809921 -2.792229891
rtibia  -0 0 43.09329987
rfoot  -0 -17.41810036 -11.38379955
rtoes  5.373923086 19.29304026 -105.8922705
lfemur  -21.25989914 2.109910011 2.131999969
ltibia  -0 0 46.53329849
lfoot  -0 -2.064320087 14.78250027
ltoes  -4.250644065 -19.5611806 -102.515957
